<svg width="1279" height="210" xmlns="http://www.w3.org/2000/svg" xmlns:xlink="http://www.w3.org/1999/xlink" xml:space="preserve" overflow="hidden"><g transform="translate(-1370 -1407)"><g><g><g><g><path d="M136.103 46.6087 119.606 46.6087C118.848 46.6087 118.848 46.6087 118.71 45.8684 117.506 39.4374 114.933 33.5505 111.574 27.9758 111.539 27.9178 111.49 27.8643 111.405 27.7572 111.244 27.8598 111.079 27.949 110.928 28.056 105.447 31.8245 99.6356 34.9642 93.3875 37.2744 93.0575 37.3948 92.9594 37.5197 93.0486 37.8898 93.9361 41.5825 94.4579 45.3287 94.6942 49.1195 94.7745 50.3816 94.8637 51.6437 94.8815 52.9059 94.886 53.441 95.0242 53.6016 95.5683 53.5971 102.842 53.5793 110.116 53.5837 117.39 53.5837L119.241 53.5837 119.241 54.721 95.0242 54.721C94.7477 58.0703 94.4757 61.3571 94.1992 64.6975L112.538 64.6975C112.319 65.5761 112.119 66.3788 111.918 67.1816 111.516 68.8049 111.111 70.4238 110.714 72.0472 110.642 72.346 110.544 72.5422 110.161 72.5378 107.449 72.5199 104.742 72.5288 102.031 72.5288 101.892 72.5288 101.754 72.4932 101.562 72.4664 101.665 71.8465 101.758 71.2578 101.866 70.6111L93.5793 70.6111C93.3028 71.3069 93.3206 71.2935 93.9985 71.5967 96.2685 72.6136 98.5296 73.6616 100.804 74.674 101.134 74.8212 101.513 74.9282 101.87 74.9282 104.332 74.9505 106.789 74.9371 109.251 74.9416 109.474 74.9416 109.701 74.9639 109.973 74.9772 109.634 76.3464 109.331 77.662 108.979 78.9643 108.881 79.3211 108.943 79.5173 109.251 79.7135 109.88 80.1149 110.486 80.552 111.142 80.9979 111.267 80.8195 111.387 80.6679 111.485 80.5074 115.133 74.6205 117.644 68.2965 118.79 61.4463 118.844 61.1297 118.987 61.0806 119.254 61.0851 120.253 61.094 121.252 61.0895 122.251 61.0895L136.17 61.0895C135.648 63.306 135.22 65.4512 134.636 67.5517 132.25 76.1189 127.977 83.598 121.578 89.8149 117.742 93.5433 113.403 96.5714 108.653 99.0288 102.031 102.454 95.0064 104.684 87.6745 105.982 82.0329 106.981 76.3512 107.458 70.6249 107.489 66.8251 107.511 63.0388 107.391 59.2614 107.021 51.4256 106.254 43.7503 104.746 36.3783 101.905 29.595 99.2919 23.4093 95.7018 18.0888 90.7024 12.1752 85.1455 8.00974 78.4782 5.41862 70.8074 4.09407 66.8828 3.24671 62.8601 2.81411 58.7392 2.47517 55.5059 2.28786 52.2547 2.65356 49.0303 3.77296 39.1787 7.12225 30.1967 13.4105 22.4278 18.0085 16.7461 23.668 12.3666 30.1034 8.96379 37.0473 5.2934 44.4371 2.9208 52.1436 1.48476 57.0538 0.570507 62.0041 0.0219554 66.9991 0.00411634 70.665-0.00926295 74.3443-0.00480319 77.9969 0.253863 86.6577 0.864851 95.1268 2.46591 103.217 5.76167 110.196 8.60701 116.462 12.545 121.765 17.9279 129.034 25.3044 133.668 34.099 135.737 44.245 135.885 44.9898 135.969 45.7479 136.103 46.6087ZM92.6695 36.3512C99.1941 33.9608 105.17 30.7185 110.803 26.7538 105.728 18.4676 98.5475 12.7724 89.7305 9.04406 83.9819 6.61349 77.9612 5.39151 71.7175 5.21758 76.9042 9.04852 81.2346 13.6599 84.8203 18.9804 88.4015 24.2965 90.9748 30.0719 92.6695 36.3512ZM28.8413 27.5744C28.5782 27.9981 28.324 28.4039 28.0742 28.8142 23.6011 36.2308 21.0412 44.2049 20.9564 52.9192 20.952 53.4812 21.1215 53.5971 21.6432 53.5927 28.8056 53.5748 35.968 53.5837 43.1304 53.5793 43.34 53.5793 43.5452 53.5615 43.728 53.5525 43.7681 53.4678 43.7904 53.4366 43.7949 53.4009 43.8038 53.2582 43.8127 53.1155 43.8083 52.9728 43.7325 47.6924 44.4594 42.5101 45.7617 37.4037 45.891 36.8908 45.7572 36.7258 45.3157 36.5564 40.9407 34.8616 36.7619 32.7656 32.806 30.2413 31.4949 29.3984 30.2149 28.4976 28.8413 27.5744ZM57.1876 69.4338C56.6123 69.5676 56.1128 69.6701 55.6267 69.8128 55.5375 69.8396 55.4394 70.0626 55.4572 70.1785 55.7025 72.0829 55.9701 73.9827 56.2287 75.887 56.3268 76.6184 56.416 77.3543 56.5186 78.1794L49.8691 78.1794C52.4424 80.9712 54.9042 83.6381 57.4596 86.4032L53.4904 86.4032C53.6109 86.6306 53.6911 86.8046 53.7892 86.9651 57.5711 93.2355 62.4992 98.3866 68.7205 102.284 69.0104 102.467 69.2022 102.458 69.4787 102.28 75.7224 98.2751 80.8779 93.182 84.8515 86.9116 84.9407 86.7689 85.0165 86.6128 85.1459 86.3764L83.1791 86.3764C83.1925 86.1311 83.1925 85.9572 83.2103 85.7833 83.4824 83.3616 83.7589 80.94 84.0265 78.5183 84.294 76.0966 84.5304 73.6705 84.8114 71.2489 84.9719 69.8664 84.9898 69.8931 83.6385 69.5631 83.1925 69.4561 82.9873 69.5185 83.0186 70.0001 83.0498 70.5219 82.8312 70.687 82.2916 70.687 77.0514 70.6647 71.8112 70.6736 66.5709 70.6736L65.7593 70.6736C65.8618 71.2132 65.9689 71.6592 66.0268 72.1141 66.0893 72.6091 66.3167 72.7607 66.8296 72.7563 71.8736 72.734 76.9176 72.7429 81.9616 72.7429L82.6528 72.7429C82.4745 74.2904 82.2827 75.7666 82.14 77.2473 82.0865 77.778 81.8501 77.8895 81.3551 77.885 76.7392 77.8672 72.1233 77.8716 67.5075 77.8761 67.2622 77.8761 67.0169 77.8984 66.7003 77.9118 66.7895 78.3979 66.9188 78.8305 66.9411 79.2631 66.9678 79.825 67.2488 79.9053 67.7349 79.9053 72.1902 79.8919 76.6455 79.8964 81.1053 79.8964L81.8323 79.8964C81.5513 82.095 81.2792 84.2179 81.0072 86.3407L59.4576 86.3407C58.7039 80.708 57.9502 75.111 57.1876 69.4338ZM66.7895 5.2265C59.2079 5.6145 52.1347 7.72843 45.5476 11.4613 38.9784 15.1852 33.7069 20.2916 29.5192 26.5353 31.6866 28.7874 43.9778 35.4682 46.2255 35.6243 49.9271 23.3778 56.7461 13.2318 66.7895 5.2265ZM79.9369 21.683C78.5008 22.1335 77.1718 22.5081 75.8695 22.9719 74.0009 23.6409 72.9529 25.0546 72.6897 26.9768 72.4801 28.5243 72.382 30.0986 72.3374 31.6595 72.2571 34.3488 72.2661 37.038 72.2081 39.7317 72.1992 40.2089 72.3374 40.365 72.8101 40.3204 74.4067 40.1732 76.0033 40.0796 77.5955 39.9146 82.2113 39.4374 86.6979 38.3626 91.0996 36.9176 91.5233 36.7794 91.5947 36.5965 91.4787 36.1862 89.2622 28.2121 85.5383 21.0319 80.1955 14.7035 80.0706 14.5519 79.9279 14.4181 79.7941 14.2709L79.6737 14.3378 79.9369 21.683ZM28.9706 81.2254C29.5772 80.7705 30.1123 80.329 30.6921 79.9499 31.0444 79.718 31.0801 79.4861 30.9775 79.107 29.9072 75.1824 28.8547 71.2489 27.8022 67.3198 27.5747 66.4725 27.3562 65.6207 27.1109 64.6752L44.7225 64.6752C44.4014 61.317 44.0848 58.0346 43.7681 54.7522L20.9654 54.7522C21.01 64.3808 23.5966 73.18 28.9706 81.2254ZM47.3315 36.0836C50.0074 37.6668 64.1671 40.6638 66.4594 40.1286 66.4684 40.0796 66.4907 40.0305 66.4907 39.977 66.5397 35.6287 66.4773 31.2805 66.0224 26.9545 65.8484 25.2821 64.9431 23.9531 63.409 23.2172 62.3921 22.7311 61.2772 22.4412 60.1935 22.1023 59.743 21.9595 59.2658 21.9149 58.7708 21.8168 58.8555 19.3461 58.9403 16.9111 59.025 14.3423 54.8551 18.3293 47.8934 31.3384 47.3315 36.0836ZM46.9301 37.3725C46.9346 37.3636 46.8944 37.426 46.8766 37.4929 45.5744 42.6172 44.8207 47.8128 44.9188 53.111 44.9277 53.5035 45.0749 53.5837 45.4227 53.5837 51.8002 53.5748 58.1777 53.5837 64.5551 53.5659 64.7736 53.5659 65.0635 53.3964 65.1929 53.218 66.0937 51.9515 66.5486 50.5154 66.5709 48.9679 66.5977 47.1171 66.5531 45.2618 66.5397 43.411 66.5353 42.7376 66.5397 42.0642 66.5397 41.3328 63.128 41.0964 59.8233 40.7352 56.5944 39.9502 53.3789 39.1698 50.1902 38.2511 46.9301 37.3725ZM91.8935 37.814C85.4714 40.0082 78.9512 41.2347 72.2438 41.4175 72.2259 41.5914 72.2125 41.6806 72.2125 41.7654 72.1813 44.1157 72.1367 46.466 72.1323 48.8207 72.1278 50.3906 72.5916 51.8311 73.4434 53.1512 73.653 53.4767 73.8939 53.5882 74.2729 53.5882 80.5835 53.5793 86.8896 53.5793 93.2002 53.5793 93.3875 53.5793 93.5748 53.557 93.8112 53.5436 93.6863 48.2276 93.1556 43.0275 91.8935 37.814ZM107.128 86.4121C106.843 86.3942 106.718 86.3809 106.593 86.3809 100.033 86.3809 93.4767 86.3809 86.9164 86.3719 86.5864 86.3719 86.408 86.4879 86.2385 86.76 82.4076 93.0482 77.4305 98.2439 71.334 102.369 71.0218 102.583 70.7141 102.806 70.4019 103.025 78.2912 103.301 85.5918 101.201 92.5491 97.7533 98.1372 94.9971 102.963 91.2376 107.128 86.4121ZM33.1539 86.3942C33.1361 86.4478 33.1227 86.4968 33.1048 86.5503 42.3812 96.6027 53.6153 102.57 67.6413 102.944 67.4005 102.771 67.231 102.655 67.0704 102.53 65.6433 101.464 64.1671 100.456 62.8024 99.3142 58.6013 95.8044 55.203 91.6122 52.4647 86.8848 52.2551 86.5191 52.0276 86.3541 51.5861 86.3719 50.5871 86.4076 49.5881 86.3987 48.5936 86.3719 48.3929 86.3675 48.1387 86.2649 48.0005 86.1222 45.5431 83.6158 43.0992 81.096 40.6508 78.5807 40.5527 78.4826 40.4322 78.4023 40.2048 78.2195 40.9496 81.0292 41.6498 83.6783 42.3678 86.3987 39.237 86.3942 36.1955 86.3942 33.1539 86.3942ZM91.5902 62.4988 47.1174 62.4988C47.1174 61.5756 47.1487 60.7015 47.1041 59.8319 47.0773 59.3547 47.278 59.2209 47.6972 59.1718 50.1902 58.8909 52.6788 58.6054 55.1673 58.3022 57.4819 58.0168 59.6984 57.3968 61.7499 56.2641 62.4635 55.8671 63.1191 55.3587 63.8014 54.9038 63.7791 54.8548 63.7524 54.8057 63.7301 54.7567 63.6141 54.7433 63.4937 54.721 63.3777 54.721 57.4061 54.721 51.4345 54.7255 45.4629 54.7076 44.9946 54.7076 44.9321 54.9038 44.9589 55.2829 45.0303 56.1883 45.057 57.098 45.1551 57.9989 45.3737 60.0504 45.6368 62.0974 45.8553 64.1489 45.9044 64.6128 46.1006 64.7198 46.5377 64.7198 48.8567 64.702 51.1714 64.7109 53.4904 64.7109 54.7659 64.7109 54.7526 64.7109 54.8997 65.9997 55.0023 66.8917 55.145 67.7792 55.2788 68.7247 55.8987 68.5819 56.4428 68.4615 57.0359 68.3233 56.8799 67.1058 56.7327 65.9328 56.5855 64.7465L83.6563 64.7465C83.527 65.7901 83.3932 66.7936 83.2906 67.797 83.2728 67.9843 83.3486 68.3144 83.4601 68.3545 83.9729 68.524 84.5126 68.6176 85.0923 68.747 85.2529 67.3644 85.4045 66.0666 85.5606 64.7109L92.4331 64.7109C92.7185 64.7109 92.995 64.751 93.0352 64.3139 93.2716 61.7451 93.5347 59.1808 93.7666 56.6119 93.8201 56.0009 93.7755 55.381 93.7755 54.7656L74.8393 54.7656C75.1381 55.0109 75.321 55.1714 75.5083 55.3186 77.1763 56.6387 79.1252 57.4147 81.1633 57.8473 83.3307 58.3066 85.5517 58.5341 87.7548 58.8329 88.8653 58.9845 89.9847 59.0603 91.0952 59.2031 91.2736 59.2254 91.5724 59.4127 91.5768 59.5331 91.6081 60.5098 91.5902 61.4865 91.5902 62.4988ZM61.4868 11.6441C66.7939 10.7522 72.0698 10.7745 77.3547 11.7155 77.2521 11.5237 77.145 11.3899 77.0202 11.2695 76.2798 10.5738 75.5707 9.84236 74.7903 9.19569 73.1134 7.81317 71.4053 6.47524 69.7017 5.12393 69.6526 5.08825 69.559 5.07933 69.4965 5.09717 69.2156 5.18636 68.89 5.22204 68.6715 5.39597 66.8787 6.83202 65.0903 8.27252 63.3421 9.75317 62.6776 10.3196 62.1067 11.0064 61.4868 11.6441ZM93.3384 72.5155C93.2805 72.7518 93.2225 72.899 93.2047 73.0551 92.9772 75.0843 92.7721 77.1224 92.5134 79.1471 92.4554 79.6109 92.5892 79.6957 92.9995 79.6912 95.2071 79.6778 97.4147 79.6734 99.6267 79.6957 100.068 79.7001 100.215 79.5218 100.282 79.1338 100.429 78.2418 100.568 77.3454 100.773 76.4624 100.867 76.0565 100.737 75.8826 100.398 75.722 99.0648 75.0932 97.7447 74.4287 96.4023 73.8132 95.4122 73.3584 94.391 72.957 93.3384 72.5155ZM38.1042 70.3436C38.2648 70.8743 38.4075 71.2578 38.4922 71.6547 38.5681 72.0249 38.7554 72.123 39.1211 72.1185 40.847 72.1007 42.5729 72.123 44.3033 72.1007 44.6467 72.0962 44.9901 71.9714 45.3335 71.9045 45.7483 71.8197 45.891 71.5967 45.7438 71.182 45.61 70.7984 45.726 70.3079 45.008 70.3257 42.9074 70.3748 40.8069 70.3436 38.7063 70.3436L38.1042 70.3436ZM108.586 80.5966C108.105 82.5187 107.659 84.316 107.208 86.1177 107.262 86.149 107.311 86.1757 107.364 86.2069 108.426 84.8155 109.483 83.424 110.584 81.9835 109.898 81.5019 109.291 81.0827 108.586 80.5966ZM29.5816 82.1842C30.6297 83.5043 31.6331 84.7709 32.641 86.0375L32.7882 85.9438C32.3333 84.258 31.8829 82.5767 31.4012 80.7883 30.759 81.2834 30.2015 81.707 29.5816 82.1842Z" fill="#0068B7" fill-rule="nonzero" fill-opacity="1" transform="matrix(1 0 0 1.02128 1429.79 1411)"/></g></g></g><text fill="#0068B7" fill-opacity="1" font-family="SimHei,SimHei_MSFontService,sans-serif" font-style="normal" font-variant="normal" font-weight="700" font-stretch="normal" font-size="46" text-anchor="start" direction="ltr" writing-mode="lr-tb" unicode-bidi="normal" text-decoration="none" transform="matrix(1 0 0 1 1405.2 1579)">中国中铁</text><text fill="#0068B7" fill-opacity="1" font-family="Baoli SC,Baoli SC_MSFontService,sans-serif" font-style="normal" font-variant="normal" font-weight="400" font-stretch="normal" font-size="55" text-anchor="start" direction="ltr" writing-mode="lr-tb" unicode-bidi="normal" text-decoration="none" transform="matrix(1 0 0 1 1613.62 1482)">川藏铁路沿线地质灾害在线预测预警平台</text></g></g></svg>