<svg width="1283" height="201" xmlns="http://www.w3.org/2000/svg" xmlns:xlink="http://www.w3.org/1999/xlink" xml:space="preserve" overflow="hidden"><g transform="translate(-976 -646)"><g><g><g><g><path d="M136.103 46.6086 119.606 46.6086C118.848 46.6086 118.848 46.6086 118.71 45.8682 117.506 39.4373 114.932 33.5504 111.574 27.9757 111.538 27.9177 111.489 27.8642 111.405 27.7572 111.244 27.8597 111.079 27.9489 110.927 28.056 105.446 31.8245 99.6354 34.9641 93.3873 37.2743 93.0572 37.3947 92.9591 37.5196 93.0483 37.8897 93.9358 41.5824 94.4576 45.3286 94.694 49.1194 94.7742 50.3815 94.8634 51.6436 94.8813 52.9057 94.8857 53.4409 95.024 53.6014 95.5681 53.597 102.842 53.5792 110.116 53.5836 117.39 53.5836L119.24 53.5836 119.24 54.7208 95.024 54.7208C94.7475 58.0701 94.4754 61.357 94.1989 64.6973L112.537 64.6973C112.319 65.5759 112.118 66.3786 111.918 67.1814 111.516 68.8047 111.11 70.4236 110.713 72.047 110.642 72.3458 110.544 72.542 110.16 72.5376 107.449 72.5197 104.742 72.5286 102.03 72.5286 101.892 72.5286 101.754 72.493 101.562 72.4662 101.665 71.8463 101.758 71.2576 101.865 70.611L93.579 70.611C93.3025 71.3067 93.3204 71.2933 93.9982 71.5966 96.2683 72.6134 98.5294 73.6614 100.804 74.6738 101.134 74.821 101.513 74.928 101.87 74.928 104.331 74.9503 106.789 74.9369 109.251 74.9414 109.474 74.9414 109.701 74.9637 109.973 74.9771 109.634 76.3462 109.331 77.6618 108.979 78.9641 108.88 79.3209 108.943 79.5171 109.251 79.7133 109.879 80.1147 110.486 80.5517 111.142 80.9977 111.266 80.8193 111.387 80.6677 111.485 80.5071 115.133 74.6203 117.644 68.2963 118.79 61.4462 118.844 61.1295 118.986 61.0805 119.254 61.0849 120.253 61.0938 121.252 61.0894 122.251 61.0894L136.17 61.0894C135.648 63.3059 135.22 65.451 134.636 67.5516 132.25 76.1188 127.977 83.5978 121.577 89.8147 117.742 93.543 113.403 96.5712 108.653 99.0285 102.03 102.454 95.0062 104.683 87.6743 105.981 82.0327 106.98 76.351 107.457 70.6247 107.489 66.825 107.511 63.0386 107.391 59.2612 107.02 51.4254 106.253 43.7502 104.746 36.3782 101.905 29.5949 99.2916 23.4093 95.7015 18.0888 90.7021 12.1751 85.1453 8.00972 78.478 5.4186 70.8072 4.09405 66.8826 3.2467 62.8599 2.81411 58.7391 2.47516 55.5058 2.28785 52.2546 2.65355 49.0302 3.77295 39.1786 7.12223 30.1967 13.4105 22.4278 18.0085 16.746 23.6679 12.3666 30.1033 8.96376 37.0472 5.29339 44.437 2.9208 52.1435 1.48475 57.0536 0.570505 62.004 0.0219553 66.9989 0.00411633 70.6648-0.00926292 74.3441-0.00480317 77.9967 0.253863 86.6575 0.864849 95.1266 2.4659 103.217 5.76166 110.196 8.60698 116.462 12.5449 121.765 17.9279 129.034 25.3043 133.668 34.0989 135.737 44.2449 135.884 44.9897 135.969 45.7478 136.103 46.6086ZM92.6692 36.3511C99.1939 33.9607 105.17 30.7184 110.803 26.7537 105.727 18.4675 98.5472 12.7724 89.7303 9.04404 83.9816 6.61347 77.961 5.3915 71.7173 5.21757 76.904 9.0485 81.2344 13.6599 84.8201 18.9804 88.4013 24.2964 90.9745 30.0718 92.6692 36.3511ZM28.8412 27.5743C28.5781 27.998 28.3239 28.4038 28.0742 28.8141 23.601 36.2307 21.0411 44.2047 20.9564 52.9191 20.9519 53.481 21.1214 53.597 21.6432 53.5925 28.8056 53.5747 35.9679 53.5836 43.1303 53.5792 43.3399 53.5792 43.545 53.5613 43.7279 53.5524 43.768 53.4677 43.7903 53.4364 43.7948 53.4008 43.8037 53.258 43.8126 53.1153 43.8082 52.9726 43.7324 47.6923 44.4593 42.51 45.7615 37.4036 45.8909 36.8907 45.7571 36.7257 45.3156 36.5563 40.9405 34.8616 36.7618 32.7655 32.806 30.2413 31.4948 29.3984 30.2148 28.4975 28.8412 27.5743ZM57.1874 69.4336C56.6121 69.5674 56.1126 69.6699 55.6265 69.8127 55.5373 69.8394 55.4392 70.0624 55.4571 70.1784 55.7023 72.0827 55.9699 73.9825 56.2286 75.8868 56.3267 76.6182 56.4159 77.3541 56.5185 78.1792L49.869 78.1792C52.4423 80.971 54.904 83.6379 57.4595 86.4029L53.4903 86.4029C53.6107 86.6304 53.691 86.8043 53.7891 86.9649 57.571 93.2353 62.499 98.3863 68.7204 102.284 69.0102 102.467 69.202 102.458 69.4785 102.28 75.7222 98.2748 80.8776 93.1818 84.8513 86.9114 84.9405 86.7686 85.0163 86.6125 85.1456 86.3762L83.1789 86.3762C83.1923 86.1309 83.1923 85.957 83.2101 85.783 83.4821 83.3614 83.7587 80.9398 84.0262 78.5181 84.2938 76.0965 84.5302 73.6703 84.8112 71.2487 84.9717 69.8662 84.9895 69.8929 83.6382 69.5629 83.1923 69.4559 82.9871 69.5183 83.0183 70 83.0496 70.5218 82.831 70.6868 82.2914 70.6868 77.0512 70.6645 71.811 70.6734 66.5708 70.6734L65.7591 70.6734C65.8617 71.213 65.9687 71.659 66.0267 72.1139 66.0891 72.6089 66.3166 72.7606 66.8294 72.7561 71.8734 72.7338 76.9174 72.7427 81.9614 72.7427L82.6526 72.7427C82.4742 74.2902 82.2825 75.7664 82.1398 77.2471 82.0862 77.7778 81.8499 77.8893 81.3548 77.8848 76.739 77.867 72.1232 77.8714 67.5073 77.8759 67.262 77.8759 67.0167 77.8982 66.7001 77.9116 66.7893 78.3977 66.9186 78.8303 66.9409 79.2629 66.9677 79.8248 67.2486 79.9051 67.7348 79.9051 72.19 79.8917 76.6453 79.8962 81.1051 79.8962L81.832 79.8962C81.5511 82.0948 81.279 84.2177 81.007 86.3405L59.4575 86.3405C58.7038 80.7078 57.9501 75.1108 57.1874 69.4336ZM66.7893 5.22649C59.2077 5.61449 52.1345 7.72841 45.5475 11.4612 38.9783 15.1851 33.7068 20.2915 29.5191 26.5352 31.6866 28.7874 43.9776 35.4681 46.2254 35.6242 49.927 23.3777 56.7459 13.2317 66.7893 5.22649ZM79.9366 21.683C78.5006 22.1334 77.1716 22.508 75.8693 22.9719 74.0007 23.6408 72.9527 25.0546 72.6895 26.9767 72.4799 28.5242 72.3818 30.0985 72.3372 31.6595 72.2569 34.3487 72.2659 37.0379 72.2079 39.7316 72.199 40.2088 72.3372 40.3649 72.81 40.3203 74.4065 40.1731 76.0031 40.0795 77.5953 39.9145 82.2111 39.4373 86.6976 38.3625 91.0994 36.9175 91.5231 36.7793 91.5944 36.5964 91.4785 36.1861 89.262 28.2121 85.5381 21.0319 80.1953 14.7035 80.0704 14.5518 79.9277 14.418 79.7939 14.2709L79.6735 14.3378 79.9366 21.683ZM28.9706 81.2252C29.5771 80.7703 30.1123 80.3288 30.692 79.9497 31.0444 79.7178 31.08 79.4859 30.9775 79.1068 29.9071 75.1822 28.8546 71.2487 27.8021 67.3196 27.5747 66.4723 27.3561 65.6205 27.1108 64.675L44.7224 64.675C44.4013 61.3168 44.0847 58.0344 43.768 54.7521L20.9653 54.7521C21.0099 64.3807 23.5966 73.1798 28.9706 81.2252ZM47.3314 36.0835C50.0072 37.6667 64.1669 40.6637 66.4593 40.1285 66.4682 40.0795 66.4905 40.0304 66.4905 39.9769 66.5395 35.6286 66.4771 31.2804 66.0222 26.9544 65.8483 25.282 64.9429 23.953 63.4088 23.2171 62.392 22.731 61.277 22.4411 60.1933 22.1022 59.7429 21.9595 59.2657 21.9149 58.7706 21.8168 58.8554 19.3461 58.9401 16.911 59.0249 14.3422 54.855 18.3292 47.8933 31.3384 47.3314 36.0835ZM46.93 37.3724C46.9345 37.3635 46.8943 37.4259 46.8765 37.4928 45.5742 42.6171 44.8205 47.8127 44.9186 53.1109 44.9276 53.5033 45.0747 53.5836 45.4226 53.5836 51.8 53.5747 58.1775 53.5836 64.555 53.5658 64.7735 53.5658 65.0634 53.3963 65.1927 53.2179 66.0936 51.9513 66.5485 50.5153 66.5708 48.9678 66.5975 47.117 66.5529 45.2617 66.5395 43.4109 66.5351 42.7375 66.5395 42.0641 66.5395 41.3327 63.1278 41.0963 59.8232 40.7351 56.5943 39.9501 53.3788 39.1697 50.1901 38.251 46.93 37.3724ZM91.8932 37.8139C85.4712 40.0081 78.951 41.2345 72.2436 41.4174 72.2257 41.5913 72.2123 41.6805 72.2123 41.7653 72.1811 44.1155 72.1365 46.4658 72.1321 48.8206 72.1276 50.3904 72.5914 51.8309 73.4432 53.151 73.6528 53.4766 73.8937 53.5881 74.2728 53.5881 80.5833 53.5792 86.8894 53.5792 93.2 53.5792 93.3873 53.5792 93.5746 53.5569 93.8109 53.5435 93.6861 48.2274 93.1554 43.0274 91.8932 37.8139ZM107.128 86.4119C106.842 86.394 106.717 86.3806 106.593 86.3806 100.032 86.3806 93.4765 86.3806 86.9162 86.3717 86.5861 86.3717 86.4077 86.4877 86.2383 86.7597 82.4073 93.048 77.4303 98.2436 71.3338 102.369 71.0216 102.583 70.7139 102.806 70.4017 103.024 78.291 103.301 85.5916 101.2 92.5488 97.753 98.1369 94.9969 102.962 91.2373 107.128 86.4119ZM33.1538 86.394C33.136 86.4475 33.1226 86.4966 33.1048 86.5501 42.3811 96.6024 53.6152 102.57 67.6411 102.944 67.4003 102.77 67.2308 102.654 67.0703 102.529 65.6431 101.464 64.1669 100.456 62.8023 99.3139 58.6012 95.8041 55.2028 91.6119 52.4646 86.8846 52.2549 86.5189 52.0275 86.3539 51.586 86.3717 50.587 86.4074 49.588 86.3985 48.5935 86.3717 48.3928 86.3673 48.1386 86.2647 48.0003 86.122 45.543 83.6156 43.0991 81.0958 40.6507 78.5805 40.5525 78.4824 40.4321 78.4021 40.2047 78.2193 40.9495 81.0289 41.6497 83.678 42.3677 86.3985 39.2369 86.394 36.1954 86.394 33.1538 86.394ZM91.59 62.4987 47.1173 62.4987C47.1173 61.5755 47.1485 60.7014 47.1039 59.8317 47.0772 59.3545 47.2779 59.2207 47.6971 59.1717 50.1901 58.8907 52.6786 58.6053 55.1672 58.302 57.4818 58.0166 59.6983 57.3967 61.7498 56.2639 62.4633 55.867 63.1189 55.3586 63.8012 54.9037 63.779 54.8546 63.7522 54.8056 63.7299 54.7565 63.6139 54.7431 63.4935 54.7208 63.3776 54.7208 57.406 54.7208 51.4343 54.7253 45.4627 54.7075 44.9945 54.7075 44.932 54.9037 44.9588 55.2828 45.0301 56.1881 45.0569 57.0979 45.155 57.9988 45.3735 60.0503 45.6367 62.0973 45.8552 64.1488 45.9043 64.6126 46.1005 64.7196 46.5375 64.7196 48.8566 64.7018 51.1712 64.7107 53.4903 64.7107 54.7658 64.7107 54.7524 64.7107 54.8996 65.9996 55.0022 66.8915 55.1449 67.779 55.2787 68.7245 55.8986 68.5818 56.4427 68.4613 57.0358 68.3231 56.8797 67.1056 56.7325 65.9327 56.5854 64.7464L83.6561 64.7464C83.5267 65.79 83.393 66.7934 83.2904 67.7968 83.2725 67.9842 83.3484 68.3142 83.4598 68.3543 83.9727 68.5238 84.5123 68.6174 85.0921 68.7468 85.2527 67.3643 85.4043 66.0665 85.5604 64.7107L92.4329 64.7107C92.7183 64.7107 92.9948 64.7508 93.0349 64.3138 93.2713 61.745 93.5344 59.1806 93.7663 56.6118 93.8199 56.0008 93.7753 55.3809 93.7753 54.7654L74.8391 54.7654C75.1379 55.0107 75.3208 55.1713 75.5081 55.3185 77.1761 56.6385 79.125 57.4145 81.1631 57.8471 83.3305 58.3065 85.5515 58.5339 87.7546 58.8327 88.8651 58.9844 89.9845 59.0602 91.0949 59.2029 91.2733 59.2252 91.5721 59.4125 91.5766 59.5329 91.6078 60.5096 91.59 61.4863 91.59 62.4987ZM61.4866 11.6441C66.7937 10.7521 72.0696 10.7744 77.3544 11.7154 77.2519 11.5237 77.1448 11.3899 77.02 11.2695 76.2796 10.5737 75.5705 9.84234 74.7901 9.19567 73.1132 7.81315 71.4051 6.47522 69.7015 5.12391 69.6524 5.08824 69.5588 5.07932 69.4964 5.09716 69.2154 5.18635 68.8898 5.22203 68.6713 5.39596 66.8785 6.832 65.0901 8.2725 63.3419 9.75314 62.6774 10.3195 62.1065 11.0063 61.4866 11.6441ZM93.3382 72.5153C93.2802 72.7516 93.2223 72.8988 93.2044 73.0549 92.977 75.0841 92.7718 77.1222 92.5131 79.1469 92.4552 79.6107 92.589 79.6955 92.9993 79.691 95.2068 79.6776 97.4144 79.6732 99.6265 79.6955 100.068 79.6999 100.215 79.5215 100.282 79.1335 100.429 78.2416 100.567 77.3452 100.773 76.4622 100.866 76.0563 100.737 75.8824 100.398 75.7218 99.0645 75.093 97.7444 74.4285 96.4021 73.8131 95.412 73.3582 94.3907 72.9568 93.3382 72.5153ZM38.1041 70.3434C38.2647 70.8741 38.4074 71.2576 38.4921 71.6545 38.568 72.0247 38.7553 72.1228 39.121 72.1183 40.8469 72.1005 42.5728 72.1228 44.3032 72.1005 44.6466 72.0961 44.99 71.9712 45.3334 71.9043 45.7482 71.8195 45.8909 71.5966 45.7437 71.1818 45.6099 70.7983 45.7259 70.3077 45.0078 70.3255 42.9073 70.3746 40.8068 70.3434 38.7062 70.3434L38.1041 70.3434ZM108.586 80.5963C108.104 82.5185 107.658 84.3158 107.208 86.1175 107.262 86.1487 107.311 86.1755 107.364 86.2067 108.426 84.8153 109.483 83.4238 110.584 81.9833 109.897 81.5017 109.291 81.0825 108.586 80.5963ZM29.5816 82.184C30.6296 83.5041 31.633 84.7707 32.6409 86.0372L32.7881 85.9436C32.3332 84.2578 31.8828 82.5765 31.4011 80.7881 30.7589 81.2831 30.2015 81.7068 29.5816 82.184Z" fill="#0068B7" fill-rule="nonzero" fill-opacity="1" transform="matrix(1 0 0 1.02129 1039.79 650)"/></g></g></g><text fill="#0068B7" fill-opacity="1" font-family="SimHei,SimHei_MSFontService,sans-serif" font-style="normal" font-variant="normal" font-weight="700" font-stretch="normal" font-size="46" text-anchor="start" direction="ltr" writing-mode="lr-tb" unicode-bidi="normal" text-decoration="none" transform="matrix(1 0 0 1 1011.2 809)">中国中铁</text><text fill="#FFFFFF" fill-opacity="1" font-family="Baoli SC,Baoli SC_MSFontService,sans-serif" font-style="normal" font-variant="normal" font-weight="400" font-stretch="normal" font-size="55" text-anchor="start" direction="ltr" writing-mode="lr-tb" unicode-bidi="normal" text-decoration="none" transform="matrix(1 0 0 1 1223.62 721)">川藏铁路沿线地质灾害在线预测预警平台</text></g></g></svg>